<?xml version="1.0" standalone="no"?>
<!DOCTYPE svg PUBLIC "-//W3C//DTD SVG 20010904//EN"
 "http://www.w3.org/TR/2001/REC-SVG-20010904/DTD/svg10.dtd">
<svg version="1.0" xmlns="http://www.w3.org/2000/svg"
 width="168.000000pt" height="168.000000pt" viewBox="0 0 168.000000 168.000000"
 preserveAspectRatio="xMidYMid meet">
<metadata>
Created by potrace 1.11, written by Peter Selinger 2001-2013
</metadata>
<g transform="translate(0.000000,168.000000) scale(0.100000,-0.100000)"
fill="#000000" stroke="none">
<path d="M279 1573 c-2 -10 -4 -116 -3 -235 0 -136 -3 -215 -9 -211 -6 4 -7 1
-1 -8 13 -21 14 -240 1 -232 -6 4 -7 1 -1 -8 13 -21 13 -162 0 -178 -8 -11 -8
-13 0 -8 14 8 14 -130 0 -152 -6 -9 -5 -12 1 -8 6 4 10 -56 11 -171 0 -97 1
-198 1 -224 l1 -48 43 0 c24 0 49 -6 56 -13 11 -9 13 -9 7 1 -4 6 -2 12 3 12
6 0 11 -6 11 -12 0 -10 3 -9 9 1 6 9 20 12 40 9 23 -3 31 -1 32 11 0 9 1 170
1 359 l1 343 26 -3 c15 -2 25 -8 23 -16 -1 -8 2 -11 8 -7 6 3 8 10 6 14 -3 4
21 7 52 6 40 -1 56 -5 54 -14 -1 -7 2 -10 8 -6 6 3 8 11 5 16 -4 5 20 9 55 9
35 0 59 -4 55 -9 -3 -5 -1 -13 5 -16 6 -4 9 -1 8 7 -2 9 10 13 39 14 29 1 40
-3 35 -10 -3 -6 -7 -18 -9 -26 -1 -8 -7 -16 -13 -18 -5 -2 -8 -8 -5 -13 3 -4
-3 -29 -15 -53 -11 -25 -20 -49 -20 -53 -1 -4 -9 -26 -20 -48 -11 -22 -19 -44
-20 -48 0 -5 -6 -23 -14 -40 -18 -39 -133 -328 -151 -377 l-12 -35 52 0 c29 0
51 3 48 8 -2 4 7 7 21 7 16 0 26 6 26 15 0 8 4 15 8 15 4 0 8 8 9 17 1 10 12
41 24 68 12 28 23 57 25 65 2 8 7 16 13 18 5 2 8 9 5 17 -3 7 -1 16 5 20 6 3
11 15 11 26 0 13 4 18 12 13 6 -4 8 -3 4 4 -3 6 -1 23 6 39 6 15 12 31 12 35
1 3 4 10 9 14 4 4 7 16 7 26 0 12 4 16 12 12 6 -4 8 -3 4 4 -7 12 13 64 23 58
3 -2 7 12 8 32 1 19 6 38 10 41 5 3 15 25 21 49 7 23 17 40 22 37 6 -3 7 1 4
9 -9 23 14 56 34 49 13 -4 13 -2 -3 10 -20 16 -20 16 5 14 14 -1 31 -8 38 -17
11 -13 11 -13 7 1 -5 13 2 16 37 15 24 -1 49 -5 57 -10 10 -6 12 -5 7 2 -5 8
0 12 13 12 12 0 21 -5 21 -11 0 -5 -6 -7 -12 -3 -10 6 -10 4 -2 -7 8 -10 12
-114 12 -339 1 -179 1 -331 2 -337 0 -10 27 -13 100 -13 l100 0 0 38 c1 58 1
1382 1 1425 l-1 38 -106 -3 -106 -3 -98 -244 c-55 -134 -101 -245 -104 -248
-2 -2 3 19 11 48 36 123 0 276 -82 347 -92 81 -180 102 -441 102 -175 0 -192
-2 -195 -17z m439 -128 c23 -9 42 -21 42 -27 0 -5 4 -7 9 -3 15 9 63 -62 76
-112 13 -52 5 -124 -20 -177 -33 -68 -115 -111 -236 -122 -51 -5 -73 -3 -86 7
-14 12 -16 12 -8 0 5 -9 4 -12 -3 -7 -15 9 -13 428 2 438 7 5 7 8 -2 8 -7 0
-11 4 -8 9 10 16 187 5 234 -14z m480 -219 c0 -37 -3 -44 -16 -40 -16 5 -16 5
-1 -5 14 -9 16 -29 16 -111 l0 -100 -58 0 -58 0 6 33 c3 17 10 37 15 43 5 7
11 23 13 35 3 13 9 25 14 27 6 2 7 10 4 18 -3 8 0 14 6 14 6 0 10 3 9 8 -4 14
26 101 34 96 4 -3 5 2 2 10 -3 9 -2 16 4 16 6 0 10 -20 10 -44z m-239 -204
c-18 -42 -26 -52 -46 -52 -24 0 -23 1 11 38 20 20 39 45 42 55 3 10 8 17 10
14 2 -2 -5 -27 -17 -55z"/>
<path d="M995 740 c3 -5 8 -10 11 -10 2 0 4 5 4 10 0 6 -5 10 -11 10 -5 0 -7
-4 -4 -10z"/>
</g>
</svg>
